<?xml version="1.0" standalone="no"?>
<!DOCTYPE svg PUBLIC "-//W3C//DTD SVG 20010904//EN"
 "http://www.w3.org/TR/2001/REC-SVG-20010904/DTD/svg10.dtd">
<svg version="1.0" xmlns="http://www.w3.org/2000/svg"
 width="320.000000pt" height="100.000000pt" viewBox="0 0 320.000000 100.000000"
 preserveAspectRatio="xMidYMid meet">

<g transform="translate(0.000000,100.000000) scale(0.100000,-0.100000)"
fill="#000000" stroke="none">
<path d="M1820 893 c-801 -119 -1026 -156 -1043 -173 -18 -17 -46 -178 -63
-361 l-7 -66 138 -117 137 -117 122 6 c272 14 1077 45 1162 45 74 0 94 3 106
18 11 12 19 58 27 152 6 74 14 150 17 168 3 23 1 32 -9 32 -31 0 -48 -26 -54
-83 -7 -67 -23 -76 -23 -13 0 25 -5 48 -10 51 -11 7 -30 -35 -30 -68 0 -13 -9
-30 -20 -40 -19 -16 -20 -16 -14 46 11 134 14 147 34 147 11 0 23 -8 29 -17 9
-17 10 -17 16 0 8 19 36 24 33 5 -2 -8 9 -14 25 -16 24 -3 27 0 27 25 0 39
-17 53 -62 53 -31 0 -41 5 -49 24 -9 20 -7 29 11 54 31 42 21 75 -44 145 -56
60 -80 69 -130 46 -21 -10 -29 -8 -52 10 -15 11 -35 21 -45 21 -10 0 -23 8
-28 19 -6 10 -18 20 -28 23 -10 2 -88 -6 -173 -19z m150 -61 c0 -22 -7 -32
-35 -45 -44 -21 -50 -62 -17 -101 14 -15 14 -20 3 -24 -24 -8 -51 -41 -51 -63
0 -11 14 -33 30 -47 17 -15 30 -32 30 -39 0 -14 50 -43 73 -43 8 0 26 9 40 20
l26 21 11 -21 c8 -16 8 -20 -4 -20 -8 0 -30 -18 -49 -40 -19 -22 -38 -40 -42
-40 -4 0 -22 16 -39 36 l-31 35 -90 -8 c-89 -8 -90 -8 -93 -36 l-3 -28 -32 27
c-30 26 -35 26 -129 22 -54 -3 -100 -7 -102 -9 -8 -7 -28 -259 -22 -274 6 -16
-43 -22 -284 -31 l-165 -6 -75 61 c-43 35 -78 57 -83 52 -9 -9 -66 15 -79 34
-4 5 0 14 8 18 12 7 13 12 3 23 -18 22 38 372 60 378 9 3 210 35 446 71 237
36 482 74 545 84 157 25 150 26 150 -7z m98 -28 c18 -12 22 -25 22 -67 l1 -52
24 47 c30 57 57 75 91 59 13 -6 24 -17 24 -26 0 -8 11 -22 25 -31 28 -18 33
-55 10 -74 -8 -7 -38 -15 -67 -19 l-53 -8 37 -7 c72 -15 102 -87 43 -102 -13
-3 -31 -14 -41 -25 -40 -45 -94 -11 -94 60 l0 46 -26 -45 c-14 -25 -31 -48
-37 -52 -25 -16 -57 -8 -74 20 -10 15 -26 33 -35 40 -46 34 5 81 89 82 l38 1
-50 19 c-77 30 -98 71 -47 92 15 7 40 23 55 35 34 27 36 28 65 7z m167 -366
c-10 -100 -22 -128 -53 -128 -15 -1 -44 -7 -64 -14 -33 -12 -39 -11 -53 4 -8
9 -15 21 -15 26 1 19 162 173 183 174 5 0 6 -28 2 -62z m-361 -169 c-26 -27
-49 -47 -51 -46 -1 2 0 46 4 99 l6 95 44 -50 45 -50 -48 -48z m-234 113 c0 -4
-9 -13 -19 -19 -15 -10 -22 -9 -36 7 -15 17 -15 19 2 28 17 10 53 -1 53 -16z
m-59 -22 c25 -14 24 -27 -2 -41 -17 -9 -25 -8 -37 5 -13 12 -13 18 -2 30 15
19 16 19 41 6z m83 4 c20 -8 21 -43 1 -51 -9 -3 -25 3 -35 12 -19 17 -19 19
-2 31 21 16 17 15 36 8z m-27 -68 c-7 -21 -35 -30 -51 -16 -15 12 -15 14 0 31
13 15 20 16 35 6 11 -7 18 -16 16 -21z m79 -92 c-3 -8 -15 -14 -28 -14 -12 0
-49 -8 -82 -17 -53 -15 -58 -18 -36 -24 17 -5 7 -7 -30 -7 -30 1 -43 3 -27 5
22 4 27 10 27 31 0 40 10 48 64 55 27 4 63 15 80 25 l31 18 3 -29 c2 -16 1
-35 -2 -43z"/>
<path d="M1714 696 c-53 -53 -45 -123 16 -145 66 -22 140 32 140 102 0 13 -9
36 -21 51 -32 40 -90 37 -135 -8z m104 -44 c5 -32 -15 -52 -50 -52 -34 0 -45
21 -29 56 9 21 17 25 44 22 25 -2 33 -8 35 -26z"/>
<path d="M1620 620 c0 -89 0 -90 25 -90 25 0 25 1 25 90 0 89 0 90 -25 90 -25
0 -25 -1 -25 -90z"/>
<path d="M1426 681 c-63 -9 -111 -21 -113 -28 -3 -8 -12 -9 -27 -3 -23 8 -92
0 -115 -15 -8 -4 -11 -18 -7 -36 3 -16 1 -29 -4 -29 -6 0 -10 6 -10 14 0 22
-40 46 -78 46 -50 0 -102 -54 -102 -106 0 -38 0 -38 -16 -16 -10 14 -26 22
-44 22 -16 0 -32 5 -36 12 -5 8 3 9 28 5 21 -3 40 -1 47 6 33 33 -19 65 -76
46 -78 -25 -80 -103 -3 -115 22 -4 40 -11 40 -17 0 -6 -16 -7 -39 -3 -35 5
-41 3 -46 -15 -8 -26 8 -39 48 -39 39 0 83 25 90 52 l6 22 24 -22 c28 -26 82
-29 116 -6 12 9 31 35 41 58 l19 41 0 -48 c1 -44 3 -48 24 -45 16 2 23 11 25
31 4 34 15 34 39 1 15 -21 24 -24 46 -19 32 8 34 16 7 40 -17 16 -18 20 -5 38
8 12 15 32 15 44 0 16 6 23 20 23 18 0 20 -7 20 -65 0 -62 1 -65 25 -65 23 0
24 3 27 68 3 61 5 67 26 70 21 3 22 0 22 -63 l0 -67 28 6 c15 3 46 8 70 11 36
6 42 10 42 31 0 22 -2 23 -47 17 -34 -4 -44 -3 -39 5 4 7 17 12 30 12 30 0 61
24 51 39 -5 8 -19 11 -40 7 -19 -4 -36 -2 -40 3 -5 10 11 16 60 23 12 2 21 12
23 26 4 27 -9 27 -172 3z m-156 -91 c0 -9 -31 -30 -44 -30 -3 0 -6 9 -6 20 0
15 7 20 25 20 14 0 25 -4 25 -10z m-176 -23 c41 -30 -11 -100 -56 -76 -25 13
-23 55 4 73 27 19 29 19 52 3z"/>
<path d="M1277 331 c-33 -30 -34 -30 -51 -10 -14 17 -27 19 -79 17 l-62 -3 -6
-40 c-3 -22 -9 -57 -12 -77 l-6 -38 52 0 c53 0 117 28 117 51 0 6 14 -1 31
-15 35 -29 67 -33 109 -11 90 46 76 155 -20 155 -29 0 -48 -7 -73 -29z m92
-29 c13 -23 -12 -62 -38 -62 -28 0 -44 25 -32 48 18 35 55 42 70 14z m-181
-25 c5 -25 -16 -47 -45 -47 -21 0 -24 4 -19 23 3 12 6 28 6 35 0 21 54 11 58
-11z"/>
<path d="M2069 682 c7 -13 11 -25 9 -26 -2 -2 -14 -11 -28 -20 l-25 -18 28 6
c18 4 35 2 45 -6 13 -11 15 -10 9 4 -5 14 3 23 33 38 50 25 52 34 4 14 -35
-15 -38 -14 -62 8 l-25 23 12 -23z"/>
</g>
<defs>
<filter id="filter0_d_506_10589" x="7.42139" y="6.23706" width="5.36865" height="20.5264" filterUnits="userSpaceOnUse" color-interpolation-filters="sRGB">
<feFlood flood-opacity="0" result="BackgroundImageFix"/>
<feColorMatrix in="SourceAlpha" type="matrix" values="0 0 0 0 0 0 0 0 0 0 0 0 0 0 0 0 0 0 127 0" result="hardAlpha"/>
<feOffset dy="0.5"/>
<feGaussianBlur stdDeviation="0.5"/>
<feComposite in2="hardAlpha" operator="out"/>
<feColorMatrix type="matrix" values="0 0 0 0 0 0 0 0 0 0 0 0 0 0 0 0 0 0 0.12 0"/>
<feBlend mode="normal" in2="BackgroundImageFix" result="effect1_dropShadow_506_10589"/>
<feBlend mode="normal" in="SourceGraphic" in2="effect1_dropShadow_506_10589" result="shape"/>
</filter>
<filter id="filter1_d_506_10589" x="13.7368" y="12.9734" width="5.36865" height="13.7896" filterUnits="userSpaceOnUse" color-interpolation-filters="sRGB">
<feFlood flood-opacity="0" result="BackgroundImageFix"/>
<feColorMatrix in="SourceAlpha" type="matrix" values="0 0 0 0 0 0 0 0 0 0 0 0 0 0 0 0 0 0 127 0" result="hardAlpha"/>
<feOffset dy="0.5"/>
<feGaussianBlur stdDeviation="0.5"/>
<feComposite in2="hardAlpha" operator="out"/>
<feColorMatrix type="matrix" values="0 0 0 0 0 0 0 0 0 0 0 0 0 0 0 0 0 0 0.12 0"/>
<feBlend mode="normal" in2="BackgroundImageFix" result="effect1_dropShadow_506_10589"/>
<feBlend mode="normal" in="SourceGraphic" in2="effect1_dropShadow_506_10589" result="shape"/>
</filter>
<filter id="filter2_d_506_10589" x="20.0522" y="8.7627" width="5.36865" height="18" filterUnits="userSpaceOnUse" color-interpolation-filters="sRGB">
<feFlood flood-opacity="0" result="BackgroundImageFix"/>
<feColorMatrix in="SourceAlpha" type="matrix" values="0 0 0 0 0 0 0 0 0 0 0 0 0 0 0 0 0 0 127 0" result="hardAlpha"/>
<feOffset dy="0.5"/>
<feGaussianBlur stdDeviation="0.5"/>
<feComposite in2="hardAlpha" operator="out"/>
<feColorMatrix type="matrix" values="0 0 0 0 0 0 0 0 0 0 0 0 0 0 0 0 0 0 0.12 0"/>
<feBlend mode="normal" in2="BackgroundImageFix" result="effect1_dropShadow_506_10589"/>
<feBlend mode="normal" in="SourceGraphic" in2="effect1_dropShadow_506_10589" result="shape"/>
</filter>
</defs>
</svg>
